0
SECTION
2
HEADER
9
$INSUNITS
70
4
9
$ACADVER
1
AC1014
9
$HANDSEED
5
FFFF
0
ENDSEC
0
SECTION
2
TABLES
0
TABLE
2
VPORT
5
8
100
AcDbSymbolTable
0
ENDTAB
0
TABLE
2
LTYPE
5
5
100
AcDbSymbolTable
0
LTYPE
5
14
100
AcDbSymbolTableRecord
100
AcDbLinetypeTableRecord
2
BYBLOCK
70
0
0
LTYPE
5
15
100
AcDbSymbolTableRecord
100
AcDbLinetypeTableRecord
2
BYLAYER
70
0
0
ENDTAB
0
TABLE
2
LAYER
5
2
100
AcDbSymbolTable
70
2
0
LAYER
5
50
100
AcDbSymbolTableRecord
100
AcDbLayerTableRecord
2
0
70
0
6
CONTINUOUS
0
ENDTAB
0
TABLE
2
STYLE
5
3
100
AcDbSymbolTable
70
1
0
STYLE
5
11
100
AcDbSymbolTableRecord
100
AcDbTextStyleTableRecord
2
STANDARD
70
0
0
ENDTAB
0
TABLE
2
VIEW
5
6
100
AcDbSymbolTable
70
0
0
ENDTAB
0
TABLE
2
UCS
5
7
100
AcDbSymbolTable
70
0
0
ENDTAB
0
TABLE
2
APPID
5
9
100
AcDbSymbolTable
70
2
0
APPID
5
12
100
AcDbSymbolTableRecord
100
AcDbRegAppTableRecord
2
ACAD
70
0
0
ENDTAB
0
TABLE
2
DIMSTYLE
5
A
100
AcDbSymbolTable
70
1
0
ENDTAB
0
TABLE
2
BLOCK_RECORD
5
1
100
AcDbSymbolTable
70
1
0
BLOCK_RECORD
5
1F
100
AcDbSymbolTableRecord
100
AcDbBlockTableRecord
2
*MODEL_SPACE
0
BLOCK_RECORD
5
1B
100
AcDbSymbolTableRecord
100
AcDbBlockTableRecord
2
*PAPER_SPACE
0
ENDTAB
0
ENDSEC
0
SECTION
2
BLOCKS
0
BLOCK
5
20
100
AcDbEntity
100
AcDbBlockBegin
2
*MODEL_SPACE
0
ENDBLK
5
21
100
AcDbEntity
100
AcDbBlockEnd
0
BLOCK
5
1C
100
AcDbEntity
100
AcDbBlockBegin
2
*PAPER_SPACE
0
ENDBLK
5
1D
100
AcDbEntity
100
AcDbBlockEnd
0
ENDSEC
0
SECTION
2
ENTITIES
0
LWPOLYLINE
5
100
100
AcDbEntity
8
0
100
AcDbPolyline
90
24
70
1
43
0.0
10
60.114200000000004
20
81.889599999999973
10
53.113899999999994
20
81.889599999999973
10
53.113899999999987
20
68.389499999999956
10
51.615299999999984
20
68.38949999999997
10
51.615300000000005
20
63.390699999999981
10
53.113899999999994
20
63.390699999999981
10
53.113899999999987
20
27.889199999999974
10
51.615299999999984
20
27.889199999999974
10
51.615299999999984
20
22.890399999999982
10
53.113899999999965
20
22.890399999999964
10
53.113899999999987
20
11.889699999999968
10
51.615299999999984
20
11.889699999999968
10
51.615299999999991
20
8.8899999999999757
10
61.615299999999984
20
8.8899999999999579
10
61.615299999999976
20
11.889699999999941
10
60.114200000000011
20
11.889699999999976
10
60.114200000000011
20
22.890399999999957
10
61.615299999999976
20
22.890399999999971
10
61.615299999999976
20
27.889199999999946
10
60.114199999999997
20
27.889199999999967
10
60.114200000000004
20
63.390699999999981
10
61.615299999999984
20
63.390699999999981
10
61.615299999999976
20
68.389499999999956
10
60.114199999999997
20
68.389499999999984
0
LINE
5
101
100
AcDbEntity
8
0
100
AcDbLine
10
22.415499999999984
20
8.8899999999999935
30
0
11
12.415499999999993
21
8.8899999999999935
31
0
0
LINE
5
102
100
AcDbEntity
8
0
100
AcDbLine
10
12.415499999999993
20
8.8899999999999935
30
0
11
12.41550000000001
21
11.889699999999985
31
0
0
LINE
5
103
100
AcDbEntity
8
0
100
AcDbLine
10
12.41550000000001
20
11.889699999999985
30
0
11
13.914099999999996
21
11.889699999999968
31
0
0
LINE
5
104
100
AcDbEntity
8
0
100
AcDbLine
10
13.914099999999996
20
11.889699999999968
30
0
11
13.914099999999987
21
22.890399999999964
31
0
0
LINE
5
105
100
AcDbEntity
8
0
100
AcDbLine
10
13.914099999999987
20
22.890399999999964
30
0
11
12.415500000000002
21
22.890399999999964
31
0
0
LINE
5
106
100
AcDbEntity
8
0
100
AcDbLine
10
12.415500000000002
20
22.890399999999964
30
0
11
12.415500000000002
21
27.889199999999974
31
0
0
LINE
5
107
100
AcDbEntity
8
0
100
AcDbLine
10
12.415500000000002
20
27.889199999999974
30
0
11
13.914100000000005
21
27.889199999999974
31
0
0
LINE
5
108
100
AcDbEntity
8
0
100
AcDbLine
10
13.914100000000005
20
27.889199999999974
30
0
11
13.914099999999994
21
63.390699999999981
31
0
0
LINE
5
109
100
AcDbEntity
8
0
100
AcDbLine
10
13.914099999999994
20
63.390699999999981
30
0
11
12.4155
21
63.390699999999981
31
0
0
LINE
5
110
100
AcDbEntity
8
0
100
AcDbLine
10
12.4155
20
63.390699999999981
30
0
11
12.415500000000002
21
68.38949999999997
31
0
0
LINE
5
111
100
AcDbEntity
8
0
100
AcDbLine
10
12.415500000000002
20
68.38949999999997
30
0
11
13.914100000000005
21
68.389499999999984
31
0
0
LINE
5
112
100
AcDbEntity
8
0
100
AcDbLine
10
13.914100000000005
20
68.389499999999984
30
0
11
13.914100000000001
21
81.889599999999973
31
0
0
LINE
5
113
100
AcDbEntity
8
0
100
AcDbLine
10
13.914100000000001
20
81.889599999999973
30
0
11
20.914400000000001
21
81.889599999999973
31
0
0
LINE
5
114
100
AcDbEntity
8
0
100
AcDbLine
10
20.914400000000001
20
81.889599999999973
30
0
11
20.914400000000001
21
68.38949999999997
31
0
0
LINE
5
115
100
AcDbEntity
8
0
100
AcDbLine
10
20.914400000000001
20
68.38949999999997
30
0
11
22.415500000000005
21
68.389499999999984
31
0
0
LINE
5
116
100
AcDbEntity
8
0
100
AcDbLine
10
22.415500000000005
20
68.389499999999984
30
0
11
22.415499999999998
21
63.390699999999967
31
0
0
LINE
5
117
100
AcDbEntity
8
0
100
AcDbLine
10
22.415499999999998
20
63.390699999999967
30
0
11
20.914400000000001
21
63.390699999999988
31
0
0
LINE
5
118
100
AcDbEntity
8
0
100
AcDbLine
10
20.914400000000001
20
63.390699999999988
30
0
11
20.914400000000004
21
27.889199999999967
31
0
0
LINE
5
119
100
AcDbEntity
8
0
100
AcDbLine
10
20.914400000000004
20
27.889199999999967
30
0
11
22.415500000000009
21
27.889199999999967
31
0
0
LINE
5
120
100
AcDbEntity
8
0
100
AcDbLine
10
22.415500000000009
20
27.889199999999967
30
0
11
22.415500000000002
21
22.890399999999957
31
0
0
LINE
5
121
100
AcDbEntity
8
0
100
AcDbLine
10
22.415500000000002
20
22.890399999999957
30
0
11
20.914400000000004
21
22.890399999999971
31
0
0
LINE
5
122
100
AcDbEntity
8
0
100
AcDbLine
10
20.914400000000004
20
22.890399999999971
30
0
11
20.914400000000004
21
11.889699999999976
31
0
0
LINE
5
123
100
AcDbEntity
8
0
100
AcDbLine
10
20.914400000000004
20
11.889699999999976
30
0
11
22.415499999999994
21
11.889699999999976
31
0
0
LINE
5
124
100
AcDbEntity
8
0
100
AcDbLine
10
22.415499999999994
20
11.889699999999976
30
0
11
22.415499999999984
21
8.8899999999999935
31
0
0
ENDSEC
0
SECTION
2
OBJECTS
0
DICTIONARY
5
C
100
AcDbDictionary
3
ACAD_GROUP
350
D
3
ACAD_MLINESTYLE
350
17
0
DICTIONARY
5
D
100
AcDbDictionary
0
DICTIONARY
5
1A
330
C
100
AcDbDictionary
0
DICTIONARY
5
17
100
AcDbDictionary
0
ENDSEC
0
EOF
