0
SECTION
2
HEADER
9
$INSUNITS
70
4
9
$ACADVER
1
AC1014
9
$HANDSEED
5
FFFF
0
ENDSEC
0
SECTION
2
TABLES
0
TABLE
2
VPORT
5
8
100
AcDbSymbolTable
0
ENDTAB
0
TABLE
2
LTYPE
5
5
100
AcDbSymbolTable
0
LTYPE
5
14
100
AcDbSymbolTableRecord
100
AcDbLinetypeTableRecord
2
BYBLOCK
70
0
0
LTYPE
5
15
100
AcDbSymbolTableRecord
100
AcDbLinetypeTableRecord
2
BYLAYER
70
0
0
ENDTAB
0
TABLE
2
LAYER
5
2
100
AcDbSymbolTable
70
2
0
LAYER
5
50
100
AcDbSymbolTableRecord
100
AcDbLayerTableRecord
2
0
70
0
6
CONTINUOUS
0
ENDTAB
0
TABLE
2
STYLE
5
3
100
AcDbSymbolTable
70
1
0
STYLE
5
11
100
AcDbSymbolTableRecord
100
AcDbTextStyleTableRecord
2
STANDARD
70
0
0
ENDTAB
0
TABLE
2
VIEW
5
6
100
AcDbSymbolTable
70
0
0
ENDTAB
0
TABLE
2
UCS
5
7
100
AcDbSymbolTable
70
0
0
ENDTAB
0
TABLE
2
APPID
5
9
100
AcDbSymbolTable
70
2
0
APPID
5
12
100
AcDbSymbolTableRecord
100
AcDbRegAppTableRecord
2
ACAD
70
0
0
ENDTAB
0
TABLE
2
DIMSTYLE
5
A
100
AcDbSymbolTable
70
1
0
ENDTAB
0
TABLE
2
BLOCK_RECORD
5
1
100
AcDbSymbolTable
70
1
0
BLOCK_RECORD
5
1F
100
AcDbSymbolTableRecord
100
AcDbBlockTableRecord
2
*MODEL_SPACE
0
BLOCK_RECORD
5
1B
100
AcDbSymbolTableRecord
100
AcDbBlockTableRecord
2
*PAPER_SPACE
0
ENDTAB
0
ENDSEC
0
SECTION
2
BLOCKS
0
BLOCK
5
20
100
AcDbEntity
100
AcDbBlockBegin
2
*MODEL_SPACE
0
ENDBLK
5
21
100
AcDbEntity
100
AcDbBlockEnd
0
BLOCK
5
1C
100
AcDbEntity
100
AcDbBlockBegin
2
*PAPER_SPACE
0
ENDBLK
5
1D
100
AcDbEntity
100
AcDbBlockEnd
0
ENDSEC
0
SECTION
2
ENTITIES
0
CIRCLE
5
100
100
AcDbEntity
8
0
100
AcDbCircle
10
75.691999999999993
20
73.024999999999963
30
0
40
1.143
210
0
220
-0
230
1
0
CIRCLE
5
101
100
AcDbEntity
8
0
100
AcDbCircle
10
75.730100000000007
20
87.604599999999948
30
0
40
1.5874999999999997
210
0
220
-0
230
1
0
CIRCLE
5
102
100
AcDbEntity
8
0
100
AcDbCircle
10
75.691999999999993
20
69.214999999999961
30
0
40
1.143
210
0
220
-0
230
1
0
CIRCLE
5
103
100
AcDbEntity
8
0
100
AcDbCircle
10
75.691999999999993
20
65.404999999999959
30
0
40
1.143
210
0
220
-0
230
1
0
CIRCLE
5
104
100
AcDbEntity
8
0
100
AcDbCircle
10
75.691999999999993
20
61.594999999999956
30
0
40
1.143
210
0
220
-0
230
1
0
CIRCLE
5
105
100
AcDbEntity
8
0
100
AcDbCircle
10
75.691999999999993
20
57.784999999999954
30
0
40
1.143
210
0
220
-0
230
1
0
CIRCLE
5
106
100
AcDbEntity
8
0
100
AcDbCircle
10
75.691999999999993
20
53.974999999999952
30
0
40
1.143
210
0
220
-0
230
1
0
CIRCLE
5
107
100
AcDbEntity
8
0
100
AcDbCircle
10
75.691999999999993
20
50.164999999999949
30
0
40
1.143
210
0
220
-0
230
1
0
CIRCLE
5
108
100
AcDbEntity
8
0
100
AcDbCircle
10
75.691999999999993
20
46.354999999999947
30
0
40
1.143
210
0
220
-0
230
1
0
CIRCLE
5
109
100
AcDbEntity
8
0
100
AcDbCircle
10
75.691999999999993
20
42.544999999999945
30
0
40
1.143
210
0
220
-0
230
1
0
CIRCLE
5
110
100
AcDbEntity
8
0
100
AcDbCircle
10
75.691999999999993
20
38.734999999999957
30
0
40
1.143
210
0
220
-0
230
1
0
CIRCLE
5
111
100
AcDbEntity
8
0
100
AcDbCircle
10
75.691999999999993
20
34.924999999999955
30
0
40
1.143
210
0
220
-0
230
1
0
CIRCLE
5
112
100
AcDbEntity
8
0
100
AcDbCircle
10
75.691999999999993
20
31.114999999999959
30
0
40
1.143
210
0
220
-0
230
1
0
CIRCLE
5
113
100
AcDbEntity
8
0
100
AcDbCircle
10
75.691999999999979
20
27.30499999999995
30
0
40
1.143
210
0
220
-0
230
1
0
CIRCLE
5
114
100
AcDbEntity
8
0
100
AcDbCircle
10
75.691999999999979
20
23.494999999999955
30
0
40
1.143
210
0
220
-0
230
1
0
CIRCLE
5
115
100
AcDbEntity
8
0
100
AcDbCircle
10
75.691999999999979
20
19.684999999999953
30
0
40
1.143
210
0
220
-0
230
1
0
CIRCLE
5
116
100
AcDbEntity
8
0
100
AcDbCircle
10
75.691999999999979
20
15.874999999999959
30
0
40
1.143
210
0
220
-0
230
1
0
CIRCLE
5
117
100
AcDbEntity
8
0
100
AcDbCircle
10
75.691999999999979
20
12.064999999999957
30
0
40
1.143
210
0
220
-0
230
1
0
CIRCLE
5
118
100
AcDbEntity
8
0
100
AcDbCircle
10
68.491099999999989
20
9.3725999999999665
30
0
40
0.35559999999999992
210
0
220
-0
230
1
0
CIRCLE
5
119
100
AcDbEntity
8
0
100
AcDbCircle
10
67.475100000000012
20
9.3725999999999665
30
0
40
0.35559999999999992
210
0
220
-0
230
1
0
CIRCLE
5
120
100
AcDbEntity
8
0
100
AcDbCircle
10
66.459099999999992
20
9.3725999999999665
30
0
40
0.35559999999999992
210
0
220
-0
230
1
0
CIRCLE
5
121
100
AcDbEntity
8
0
100
AcDbCircle
10
65.443099999999987
20
9.3725999999999665
30
0
40
0.35559999999999992
210
0
220
-0
230
1
0
CIRCLE
5
122
100
AcDbEntity
8
0
100
AcDbCircle
10
38.265099999999997
20
9.3725999999999843
30
0
40
0.35559999999999992
210
0
220
-0
230
1
0
CIRCLE
5
123
100
AcDbEntity
8
0
100
AcDbCircle
10
39.281100000000009
20
9.3725999999999843
30
0
40
0.35559999999999992
210
0
220
-0
230
1
0
CIRCLE
5
124
100
AcDbEntity
8
0
100
AcDbCircle
10
40.297100000000007
20
9.3725999999999665
30
0
40
0.35559999999999992
210
0
220
-0
230
1
0
CIRCLE
5
125
100
AcDbEntity
8
0
100
AcDbCircle
10
41.313099999999999
20
9.3725999999999665
30
0
40
0.35559999999999992
210
0
220
-0
230
1
0
CIRCLE
5
126
100
AcDbEntity
8
0
100
AcDbCircle
10
3.1750000000000078
20
3.1749999999999901
30
0
40
1.5874999999999997
210
0
220
-0
230
1
0
CIRCLE
5
127
100
AcDbEntity
8
0
100
AcDbCircle
10
40.08120000000001
20
18.379399999999954
30
0
40
0.88900000000000001
210
0
220
-0
230
1
0
CIRCLE
5
128
100
AcDbEntity
8
0
100
AcDbCircle
10
42.621200000000002
20
18.379399999999954
30
0
40
0.88900000000000001
210
0
220
-0
230
1
0
CIRCLE
5
129
100
AcDbEntity
8
0
100
AcDbCircle
10
45.161200000000001
20
18.379399999999954
30
0
40
0.88900000000000001
210
0
220
-0
230
1
0
CIRCLE
5
130
100
AcDbEntity
8
0
100
AcDbCircle
10
47.701199999999993
20
18.379399999999954
30
0
40
0.88900000000000001
210
0
220
-0
230
1
0
LINE
5
131
100
AcDbEntity
8
0
100
AcDbLine
10
38.430199999999999
20
17.490399999999955
30
0
11
38.430199999999999
21
19.268399999999957
31
0
0
LINE
5
132
100
AcDbEntity
8
0
100
AcDbLine
10
38.430199999999999
20
19.268399999999957
30
0
11
36.652200000000008
21
19.268399999999957
31
0
0
LINE
5
133
100
AcDbEntity
8
0
100
AcDbLine
10
36.652200000000008
20
19.268399999999957
30
0
11
36.652200000000008
21
17.490399999999955
31
0
0
LINE
5
134
100
AcDbEntity
8
0
100
AcDbLine
10
36.652200000000008
20
17.490399999999955
30
0
11
38.430199999999999
21
17.490399999999955
31
0
0
CIRCLE
5
135
100
AcDbEntity
8
0
100
AcDbCircle
10
26.949400000000008
20
35.19419999999996
30
0
40
0.7619999999999999
210
0
220
-0
230
1
0
CIRCLE
5
136
100
AcDbEntity
8
0
100
AcDbCircle
10
26.949400000000008
20
37.734199999999952
30
0
40
0.7619999999999999
210
0
220
-0
230
1
0
CIRCLE
5
137
100
AcDbEntity
8
0
100
AcDbCircle
10
26.949400000000008
20
40.274199999999958
30
0
40
0.7619999999999999
210
0
220
-0
230
1
0
CIRCLE
5
138
100
AcDbEntity
8
0
100
AcDbCircle
10
26.949400000000018
20
42.814199999999964
30
0
40
0.7619999999999999
210
0
220
-0
230
1
0
CIRCLE
5
139
100
AcDbEntity
8
0
100
AcDbCircle
10
26.949400000000018
20
45.354199999999956
30
0
40
0.7619999999999999
210
0
220
-0
230
1
0
CIRCLE
5
140
100
AcDbEntity
8
0
100
AcDbCircle
10
26.949400000000018
20
47.894199999999955
30
0
40
0.7619999999999999
210
0
220
-0
230
1
0
CIRCLE
5
141
100
AcDbEntity
8
0
100
AcDbCircle
10
26.949400000000018
20
50.434199999999962
30
0
40
0.7619999999999999
210
0
220
-0
230
1
0
CIRCLE
5
142
100
AcDbEntity
8
0
100
AcDbCircle
10
26.949400000000018
20
52.974199999999968
30
0
40
0.7619999999999999
210
0
220
-0
230
1
0
CIRCLE
5
143
100
AcDbEntity
8
0
100
AcDbCircle
10
26.949400000000018
20
55.514199999999967
30
0
40
0.7619999999999999
210
0
220
-0
230
1
0
CIRCLE
5
144
100
AcDbEntity
8
0
100
AcDbCircle
10
26.949400000000018
20
58.054199999999966
30
0
40
0.7619999999999999
210
0
220
-0
230
1
0
CIRCLE
5
145
100
AcDbEntity
8
0
100
AcDbCircle
10
26.949400000000018
20
60.594199999999958
30
0
40
0.7619999999999999
210
0
220
-0
230
1
0
CIRCLE
5
146
100
AcDbEntity
8
0
100
AcDbCircle
10
26.949400000000018
20
63.134199999999971
30
0
40
0.7619999999999999
210
0
220
-0
230
1
0
CIRCLE
5
147
100
AcDbEntity
8
0
100
AcDbCircle
10
26.949400000000018
20
65.674199999999971
30
0
40
0.7619999999999999
210
0
220
-0
230
1
0
LINE
5
148
100
AcDbEntity
8
0
100
AcDbLine
10
26.187400000000018
20
68.976199999999963
30
0
11
26.187400000000018
21
67.452199999999962
31
0
0
LINE
5
149
100
AcDbEntity
8
0
100
AcDbLine
10
27.711400000000019
20
67.452199999999962
30
0
11
27.711400000000019
21
68.976199999999963
31
0
0
LINE
5
150
100
AcDbEntity
8
0
100
AcDbLine
10
27.711400000000019
20
68.976199999999963
30
0
11
26.187400000000018
21
68.976199999999963
31
0
0
LINE
5
151
100
AcDbEntity
8
0
100
AcDbLine
10
26.187400000000018
20
67.452199999999962
30
0
11
27.711400000000019
21
67.452199999999962
31
0
0
CIRCLE
5
152
100
AcDbEntity
8
0
100
AcDbCircle
10
3.1750000000000256
20
87.604599999999976
30
0
40
1.5874999999999997
210
0
220
-0
230
1
0
LINE
5
153
100
AcDbEntity
8
0
100
AcDbLine
10
47.90440000000001
20
34.432199999999959
30
0
11
47.90440000000001
21
35.95619999999996
31
0
0
LINE
5
154
100
AcDbEntity
8
0
100
AcDbLine
10
46.380400000000009
20
34.432199999999959
30
0
11
47.90440000000001
21
34.432199999999959
31
0
0
LINE
5
155
100
AcDbEntity
8
0
100
AcDbLine
10
46.380400000000009
20
35.95619999999996
30
0
11
46.380400000000009
21
34.432199999999959
31
0
0
LINE
5
156
100
AcDbEntity
8
0
100
AcDbLine
10
47.90440000000001
20
35.95619999999996
30
0
11
46.380400000000009
21
35.95619999999996
31
0
0
CIRCLE
5
157
100
AcDbEntity
8
0
100
AcDbCircle
10
47.142400000000009
20
37.734199999999952
30
0
40
0.7619999999999999
210
0
220
-0
230
1
0
CIRCLE
5
158
100
AcDbEntity
8
0
100
AcDbCircle
10
47.142400000000009
20
40.274199999999958
30
0
40
0.7619999999999999
210
0
220
-0
230
1
0
CIRCLE
5
159
100
AcDbEntity
8
0
100
AcDbCircle
10
47.142400000000009
20
42.814199999999964
30
0
40
0.7619999999999999
210
0
220
-0
230
1
0
CIRCLE
5
160
100
AcDbEntity
8
0
100
AcDbCircle
10
47.142400000000009
20
45.354199999999956
30
0
40
0.7619999999999999
210
0
220
-0
230
1
0
CIRCLE
5
161
100
AcDbEntity
8
0
100
AcDbCircle
10
47.142400000000009
20
47.894199999999955
30
0
40
0.7619999999999999
210
0
220
-0
230
1
0
CIRCLE
5
162
100
AcDbEntity
8
0
100
AcDbCircle
10
47.142400000000009
20
50.434199999999962
30
0
40
0.7619999999999999
210
0
220
-0
230
1
0
CIRCLE
5
163
100
AcDbEntity
8
0
100
AcDbCircle
10
47.142400000000009
20
52.974199999999968
30
0
40
0.7619999999999999
210
0
220
-0
230
1
0
CIRCLE
5
164
100
AcDbEntity
8
0
100
AcDbCircle
10
47.142400000000009
20
55.514199999999967
30
0
40
0.7619999999999999
210
0
220
-0
230
1
0
CIRCLE
5
165
100
AcDbEntity
8
0
100
AcDbCircle
10
47.142400000000009
20
58.054199999999966
30
0
40
0.7619999999999999
210
0
220
-0
230
1
0
CIRCLE
5
166
100
AcDbEntity
8
0
100
AcDbCircle
10
47.142400000000009
20
60.594199999999958
30
0
40
0.7619999999999999
210
0
220
-0
230
1
0
CIRCLE
5
167
100
AcDbEntity
8
0
100
AcDbCircle
10
47.142400000000009
20
63.134199999999971
30
0
40
0.7619999999999999
210
0
220
-0
230
1
0
CIRCLE
5
168
100
AcDbEntity
8
0
100
AcDbCircle
10
47.142400000000009
20
65.674199999999956
30
0
40
0.7619999999999999
210
0
220
-0
230
1
0
CIRCLE
5
169
100
AcDbEntity
8
0
100
AcDbCircle
10
47.142400000000009
20
68.214199999999963
30
0
40
0.7619999999999999
210
0
220
-0
230
1
0
CIRCLE
5
170
100
AcDbEntity
8
0
100
AcDbCircle
10
68.491100000000003
20
81.381599999999963
30
0
40
0.35559999999999992
210
0
220
-0
230
1
0
CIRCLE
5
171
100
AcDbEntity
8
0
100
AcDbCircle
10
67.475100000000026
20
81.381599999999963
30
0
40
0.35559999999999992
210
0
220
-0
230
1
0
CIRCLE
5
172
100
AcDbEntity
8
0
100
AcDbCircle
10
66.459100000000021
20
81.381599999999963
30
0
40
0.35559999999999992
210
0
220
-0
230
1
0
CIRCLE
5
173
100
AcDbEntity
8
0
100
AcDbCircle
10
65.443100000000001
20
81.381599999999963
30
0
40
0.35559999999999992
210
0
220
-0
230
1
0
CIRCLE
5
174
100
AcDbEntity
8
0
100
AcDbCircle
10
41.31310000000002
20
81.381599999999963
30
0
40
0.35559999999999992
210
0
220
-0
230
1
0
CIRCLE
5
175
100
AcDbEntity
8
0
100
AcDbCircle
10
40.297100000000022
20
81.381599999999963
30
0
40
0.35559999999999992
210
0
220
-0
230
1
0
CIRCLE
5
176
100
AcDbEntity
8
0
100
AcDbCircle
10
39.281100000000031
20
81.381599999999963
30
0
40
0.35559999999999992
210
0
220
-0
230
1
0
CIRCLE
5
177
100
AcDbEntity
8
0
100
AcDbCircle
10
38.265100000000018
20
81.381599999999963
30
0
40
0.35559999999999992
210
0
220
-0
230
1
0
LINE
5
178
100
AcDbEntity
8
0
100
AcDbLine
10
27.711400000000019
20
68.214199999999963
30
0
11
26.187400000000018
21
68.214199999999963
31
0
0
LINE
5
179
100
AcDbEntity
8
0
100
AcDbLine
10
38.430199999999999
20
18.379399999999958
30
0
11
36.652200000000008
21
18.379399999999958
31
0
0
LINE
5
180
100
AcDbEntity
8
0
100
AcDbLine
10
76.961999999999989
20
75.564999999999969
30
0
11
76.961999999999989
21
78.104999999999961
31
0
0
LINE
5
181
100
AcDbEntity
8
0
100
AcDbLine
10
74.421999999999997
20
75.564999999999969
30
0
11
76.961999999999989
21
75.564999999999969
31
0
0
LINE
5
182
100
AcDbEntity
8
0
100
AcDbLine
10
74.421999999999997
20
78.104999999999961
30
0
11
74.421999999999997
21
75.564999999999969
31
0
0
LINE
5
183
100
AcDbEntity
8
0
100
AcDbLine
10
76.961999999999989
20
78.104999999999961
30
0
11
74.421999999999997
21
78.104999999999961
31
0
0
LINE
5
184
100
AcDbEntity
8
0
100
AcDbLine
10
39.452550000000009
20
90.779599999999974
30
0
11
39.452550000000009
21
0
31
0
0
CIRCLE
5
185
100
AcDbEntity
8
0
100
AcDbCircle
10
75.730100000000007
20
3.1749999999999901
30
0
40
1.5874999999999997
210
0
220
-0
230
1
0
ENDSEC
0
SECTION
2
OBJECTS
0
DICTIONARY
5
C
100
AcDbDictionary
3
ACAD_GROUP
350
D
3
ACAD_MLINESTYLE
350
17
0
DICTIONARY
5
D
100
AcDbDictionary
0
DICTIONARY
5
1A
330
C
100
AcDbDictionary
0
DICTIONARY
5
17
100
AcDbDictionary
0
ENDSEC
0
EOF
