0
SECTION
2
HEADER
9
$INSUNITS
70
4
9
$ACADVER
1
AC1014
9
$HANDSEED
5
FFFF
0
ENDSEC
0
SECTION
2
TABLES
0
TABLE
2
VPORT
5
8
100
AcDbSymbolTable
0
ENDTAB
0
TABLE
2
LTYPE
5
5
100
AcDbSymbolTable
0
LTYPE
5
14
100
AcDbSymbolTableRecord
100
AcDbLinetypeTableRecord
2
BYBLOCK
70
0
0
LTYPE
5
15
100
AcDbSymbolTableRecord
100
AcDbLinetypeTableRecord
2
BYLAYER
70
0
0
ENDTAB
0
TABLE
2
LAYER
5
2
100
AcDbSymbolTable
70
2
0
LAYER
5
50
100
AcDbSymbolTableRecord
100
AcDbLayerTableRecord
2
0
70
0
6
CONTINUOUS
0
ENDTAB
0
TABLE
2
STYLE
5
3
100
AcDbSymbolTable
70
1
0
STYLE
5
11
100
AcDbSymbolTableRecord
100
AcDbTextStyleTableRecord
2
STANDARD
70
0
0
ENDTAB
0
TABLE
2
VIEW
5
6
100
AcDbSymbolTable
70
0
0
ENDTAB
0
TABLE
2
UCS
5
7
100
AcDbSymbolTable
70
0
0
ENDTAB
0
TABLE
2
APPID
5
9
100
AcDbSymbolTable
70
2
0
APPID
5
12
100
AcDbSymbolTableRecord
100
AcDbRegAppTableRecord
2
ACAD
70
0
0
ENDTAB
0
TABLE
2
DIMSTYLE
5
A
100
AcDbSymbolTable
70
1
0
ENDTAB
0
TABLE
2
BLOCK_RECORD
5
1
100
AcDbSymbolTable
70
1
0
BLOCK_RECORD
5
1F
100
AcDbSymbolTableRecord
100
AcDbBlockTableRecord
2
*MODEL_SPACE
0
BLOCK_RECORD
5
1B
100
AcDbSymbolTableRecord
100
AcDbBlockTableRecord
2
*PAPER_SPACE
0
ENDTAB
0
ENDSEC
0
SECTION
2
BLOCKS
0
BLOCK
5
20
100
AcDbEntity
100
AcDbBlockBegin
2
*MODEL_SPACE
0
ENDBLK
5
21
100
AcDbEntity
100
AcDbBlockEnd
0
BLOCK
5
1C
100
AcDbEntity
100
AcDbBlockBegin
2
*PAPER_SPACE
0
ENDBLK
5
1D
100
AcDbEntity
100
AcDbBlockEnd
0
ENDSEC
0
SECTION
2
ENTITIES
0
LINE
5
100
100
AcDbEntity
8
0
100
AcDbLine
10
65.697099999999992
20
7.1119999999999806
30
0
11
65.697099999999992
21
8.1280000000000108
31
0
0
LINE
5
101
100
AcDbEntity
8
0
100
AcDbLine
10
65.697099999999992
20
8.1280000000000108
30
0
11
64.932599999999979
21
8.8798000000000066
31
0
0
LINE
5
102
100
AcDbEntity
8
0
100
AcDbLine
10
64.932599999999979
20
8.8798000000000066
30
0
11
49.36490000000002
21
8.8798000000000066
31
0
0
LINE
5
103
100
AcDbEntity
8
0
100
AcDbLine
10
49.36490000000002
20
8.8798000000000066
30
0
11
48.864550000000008
21
8.3895500000000034
31
0
0
LINE
5
104
100
AcDbEntity
8
0
100
AcDbLine
10
48.864550000000008
20
8.3895500000000034
30
0
11
48.864500000000007
21
7.8815999999999953
31
0
0
LINE
5
105
100
AcDbEntity
8
0
100
AcDbLine
10
48.864500000000007
20
7.8815999999999953
30
0
11
47.564
21
7.8815999999999953
31
0
0
LINE
5
106
100
AcDbEntity
8
0
100
AcDbLine
10
47.564
20
7.8815999999999953
30
0
11
47.564050000000002
21
8.3895500000000034
31
0
0
LINE
5
107
100
AcDbEntity
8
0
100
AcDbLine
10
47.564050000000002
20
8.3895500000000034
30
0
11
47.063700000000004
21
8.8798000000000066
31
0
0
LINE
5
108
100
AcDbEntity
8
0
100
AcDbLine
10
47.063700000000004
20
8.8798000000000066
30
0
11
41.821099999999987
21
8.8797999999999888
31
0
0
LINE
5
109
100
AcDbEntity
8
0
100
AcDbLine
10
41.821099999999987
20
8.8797999999999888
30
0
11
41.059100000000008
21
8.1280000000000108
31
0
0
LINE
5
110
100
AcDbEntity
8
0
100
AcDbLine
10
41.059100000000008
20
8.1280000000000108
30
0
11
41.059100000000008
21
7.1119999999999983
31
0
0
LINE
5
111
100
AcDbEntity
8
0
100
AcDbLine
10
41.059100000000008
20
7.1119999999999983
30
0
11
41.821100000000008
21
6.3499999999999979
31
0
0
LINE
5
112
100
AcDbEntity
8
0
100
AcDbLine
10
64.935099999999991
20
6.3499999999999979
30
0
11
65.697099999999992
21
7.1119999999999806
31
0
0
LINE
5
113
100
AcDbEntity
8
0
100
AcDbLine
10
41.821100000000008
20
6.3499999999999979
30
0
11
64.935099999999991
21
6.3499999999999979
31
0
0
LINE
5
114
100
AcDbEntity
8
0
100
AcDbLine
10
64.935099999999991
20
84.429599999999979
30
0
11
65.697099999999992
21
83.667599999999979
31
0
0
LINE
5
115
100
AcDbEntity
8
0
100
AcDbLine
10
65.697099999999992
20
83.667599999999979
30
0
11
65.697099999999992
21
82.651599999999974
31
0
0
LINE
5
116
100
AcDbEntity
8
0
100
AcDbLine
10
65.697099999999992
20
82.651599999999974
30
0
11
64.935099999999991
21
81.87939999999999
31
0
0
LINE
5
117
100
AcDbEntity
8
0
100
AcDbLine
10
57.363400000000013
20
81.879399999999976
30
0
11
57.363350000000004
21
81.376499999999965
31
0
0
LINE
5
118
100
AcDbEntity
8
0
100
AcDbLine
10
57.363350000000004
20
81.376499999999965
30
0
11
55.862200000000001
21
81.373899999999978
31
0
0
LINE
5
119
100
AcDbEntity
8
0
100
AcDbLine
10
55.862200000000001
20
81.373899999999978
30
0
11
55.862200000000001
21
81.879399999999976
31
0
0
LINE
5
120
100
AcDbEntity
8
0
100
AcDbLine
10
55.862200000000001
20
81.879399999999976
30
0
11
49.362349999999992
21
81.889549999999986
31
0
0
LINE
5
121
100
AcDbEntity
8
0
100
AcDbLine
10
49.362349999999992
20
81.889549999999986
30
0
11
48.864549999999987
21
82.389949999999999
31
0
0
LINE
5
122
100
AcDbEntity
8
0
100
AcDbLine
10
48.864549999999987
20
82.389949999999999
30
0
11
48.864499999999992
21
82.890299999999982
31
0
0
LINE
5
123
100
AcDbEntity
8
0
100
AcDbLine
10
48.864499999999992
20
82.890299999999982
30
0
11
47.564
21
82.890299999999982
31
0
0
LINE
5
124
100
AcDbEntity
8
0
100
AcDbLine
10
47.564
20
82.890299999999982
30
0
11
47.564
21
82.389899999999983
31
0
0
LINE
5
125
100
AcDbEntity
8
0
100
AcDbLine
10
47.564
20
82.389899999999983
30
0
11
47.063700000000004
21
81.879399999999976
31
0
0
LINE
5
126
100
AcDbEntity
8
0
100
AcDbLine
10
47.063700000000004
20
81.879399999999976
30
0
11
41.818549999999995
21
81.879399999999976
31
0
0
LINE
5
127
100
AcDbEntity
8
0
100
AcDbLine
10
41.818549999999995
20
81.879399999999976
30
0
11
41.059099999999987
21
82.651599999999974
31
0
0
LINE
5
128
100
AcDbEntity
8
0
100
AcDbLine
10
41.059099999999987
20
82.651599999999974
30
0
11
41.059099999999987
21
83.667599999999979
31
0
0
LINE
5
129
100
AcDbEntity
8
0
100
AcDbLine
10
41.059099999999987
20
83.667599999999979
30
0
11
41.821099999999973
21
84.429599999999979
31
0
0
LINE
5
130
100
AcDbEntity
8
0
100
AcDbLine
10
41.821099999999973
20
84.429599999999979
30
0
11
64.935099999999991
21
84.429599999999979
31
0
0
LINE
5
131
100
AcDbEntity
8
0
100
AcDbLine
10
64.935099999999991
20
81.87939999999999
30
0
11
57.363400000000013
21
81.879399999999976
31
0
0
LINE
5
132
100
AcDbEntity
8
0
100
AcDbLine
10
26.464299999999994
20
82.389899999999983
30
0
11
26.464299999999994
21
82.880199999999974
31
0
0
LINE
5
133
100
AcDbEntity
8
0
100
AcDbLine
10
26.464299999999994
20
82.880199999999974
30
0
11
25.163799999999988
21
82.880200000000002
31
0
0
LINE
5
134
100
AcDbEntity
8
0
100
AcDbLine
10
25.163799999999988
20
82.880200000000002
30
0
11
25.163799999999988
21
82.389949999999999
31
0
0
LINE
5
135
100
AcDbEntity
8
0
100
AcDbLine
10
25.163799999999988
20
82.389949999999999
30
0
11
24.665899999999972
21
81.881899999999987
31
0
0
LINE
5
136
100
AcDbEntity
8
0
100
AcDbLine
10
24.665899999999972
20
81.881899999999987
30
0
11
18.163499999999992
21
81.874299999999977
31
0
0
LINE
5
137
100
AcDbEntity
8
0
100
AcDbLine
10
18.163499999999992
20
81.874299999999977
30
0
11
18.163499999999992
21
81.381599999999978
31
0
0
LINE
5
138
100
AcDbEntity
8
0
100
AcDbLine
10
18.163499999999992
20
81.381599999999978
30
0
11
16.662399999999991
21
81.381599999999978
31
0
0
LINE
5
139
100
AcDbEntity
8
0
100
AcDbLine
10
16.662399999999991
20
81.381599999999978
30
0
11
16.662399999999991
21
81.889599999999973
31
0
0
LINE
5
140
100
AcDbEntity
8
0
100
AcDbLine
10
16.662399999999991
20
81.889599999999973
30
0
11
1.508799999999999
21
81.889599999999973
31
0
0
LINE
5
141
100
AcDbEntity
8
0
100
AcDbLine
10
1.508799999999999
20
81.889599999999973
30
0
11
0
21
80.380799999999965
31
0
0
LINE
5
142
100
AcDbEntity
8
0
100
AcDbLine
10
0
20
80.380799999999965
30
0
11
0
21
10.37840000000001
31
0
0
LINE
5
143
100
AcDbEntity
8
0
100
AcDbLine
10
0
20
10.37840000000001
30
0
11
1.4884000000000164
21
8.8798000000000066
31
0
0
LINE
5
144
100
AcDbEntity
8
0
100
AcDbLine
10
1.4884000000000164
20
8.8798000000000066
30
0
11
24.663399999999989
21
8.8798000000000243
31
0
0
LINE
5
145
100
AcDbEntity
8
0
100
AcDbLine
10
24.663399999999989
20
8.8798000000000243
30
0
11
25.163800000000009
21
8.389600000000037
31
0
0
LINE
5
146
100
AcDbEntity
8
0
100
AcDbLine
10
25.163800000000009
20
8.389600000000037
30
0
11
25.163800000000016
21
7.881600000000013
31
0
0
LINE
5
147
100
AcDbEntity
8
0
100
AcDbLine
10
25.163800000000016
20
7.881600000000013
30
0
11
26.464300000000005
21
7.881600000000013
31
0
0
LINE
5
148
100
AcDbEntity
8
0
100
AcDbLine
10
26.464300000000005
20
7.881600000000013
30
0
11
26.464250000000007
21
8.3895500000000212
31
0
0
LINE
5
149
100
AcDbEntity
8
0
100
AcDbLine
10
26.464250000000007
20
8.3895500000000212
30
0
11
26.964600000000011
21
8.8798000000000243
31
0
0
LINE
5
150
100
AcDbEntity
8
0
100
AcDbLine
10
26.964600000000011
20
8.8798000000000243
30
0
11
37.754600000000018
21
8.8798000000000243
31
0
0
LINE
5
151
100
AcDbEntity
8
0
100
AcDbLine
10
37.754600000000018
20
8.8798000000000243
30
0
11
38.519100000000002
21
8.1280000000000285
31
0
0
LINE
5
152
100
AcDbEntity
8
0
100
AcDbLine
10
38.519100000000002
20
8.1280000000000285
30
0
11
38.519100000000002
21
7.1120000000000161
31
0
0
LINE
5
153
100
AcDbEntity
8
0
100
AcDbLine
10
38.519100000000002
20
7.1120000000000161
30
0
11
37.75710000000003
21
6.3500000000000156
31
0
0
LINE
5
154
100
AcDbEntity
8
0
100
AcDbLine
10
37.75710000000003
20
6.3500000000000156
30
0
11
1.7763568394002505e-14
21
6.3499999999999979
31
0
0
LINE
5
155
100
AcDbEntity
8
0
100
AcDbLine
10
1.7763568394002505e-14
20
6.3499999999999979
30
0
11
0
21
1.7763568394002505e-14
31
0
0
LINE
5
156
100
AcDbEntity
8
0
100
AcDbLine
10
0
20
1.7763568394002505e-14
30
0
11
78.905100000000019
21
0
31
0
0
LINE
5
157
100
AcDbEntity
8
0
100
AcDbLine
10
78.905100000000019
20
0
30
0
11
78.905100000000019
21
6.3499999999999979
31
0
0
LINE
5
158
100
AcDbEntity
8
0
100
AcDbLine
10
78.905100000000019
20
6.3499999999999979
30
0
11
68.99909999999997
21
6.3499999999999979
31
0
0
LINE
5
159
100
AcDbEntity
8
0
100
AcDbLine
10
68.99909999999997
20
6.3499999999999979
30
0
11
68.23709999999997
21
7.1119999999999806
31
0
0
LINE
5
160
100
AcDbEntity
8
0
100
AcDbLine
10
68.23709999999997
20
7.1119999999999806
30
0
11
68.23709999999997
21
8.1280000000000285
31
0
0
LINE
5
161
100
AcDbEntity
8
0
100
AcDbLine
10
68.23709999999997
20
8.1280000000000285
30
0
11
68.99909999999997
21
8.8798000000000066
31
0
0
LINE
5
162
100
AcDbEntity
8
0
100
AcDbLine
10
68.99909999999997
20
8.8798000000000066
30
0
11
78.902600000000007
21
8.8798000000000066
31
0
0
LINE
5
163
100
AcDbEntity
8
0
100
AcDbLine
10
78.902600000000007
20
8.8798000000000066
30
0
11
78.902600000000007
21
81.879399999999976
31
0
0
LINE
5
164
100
AcDbEntity
8
0
100
AcDbLine
10
78.902600000000007
20
81.879399999999976
30
0
11
68.999100000000013
21
81.879399999999976
31
0
0
LINE
5
165
100
AcDbEntity
8
0
100
AcDbLine
10
68.999100000000013
20
81.879399999999976
30
0
11
68.23709999999997
21
82.651549999999986
31
0
0
LINE
5
166
100
AcDbEntity
8
0
100
AcDbLine
10
68.23709999999997
20
82.651549999999986
30
0
11
68.23709999999997
21
83.667599999999979
31
0
0
LINE
5
167
100
AcDbEntity
8
0
100
AcDbLine
10
68.23709999999997
20
83.667599999999979
30
0
11
68.999100000000013
21
84.429599999999979
31
0
0
LINE
5
168
100
AcDbEntity
8
0
100
AcDbLine
10
68.999100000000013
20
84.429599999999979
30
0
11
78.905099999999976
21
84.429599999999979
31
0
0
LINE
5
169
100
AcDbEntity
8
0
100
AcDbLine
10
78.905099999999976
20
84.429599999999979
30
0
11
78.905099999999976
21
90.779599999999974
31
0
0
LINE
5
170
100
AcDbEntity
8
0
100
AcDbLine
10
78.905099999999976
20
90.779599999999974
30
0
11
0
21
90.779599999999974
31
0
0
LINE
5
171
100
AcDbEntity
8
0
100
AcDbLine
10
0
20
90.779599999999974
30
0
11
0
21
84.429599999999979
31
0
0
LINE
5
172
100
AcDbEntity
8
0
100
AcDbLine
10
0
20
84.429599999999979
30
0
11
37.75709999999998
21
84.429599999999979
31
0
0
LINE
5
173
100
AcDbEntity
8
0
100
AcDbLine
10
37.75709999999998
20
84.429599999999979
30
0
11
38.519099999999995
21
83.667599999999993
31
0
0
LINE
5
174
100
AcDbEntity
8
0
100
AcDbLine
10
38.519099999999995
20
83.667599999999993
30
0
11
38.51909999999998
21
82.651549999999986
31
0
0
LINE
5
175
100
AcDbEntity
8
0
100
AcDbLine
10
38.51909999999998
20
82.651549999999986
30
0
11
37.757100000000008
21
81.879399999999976
31
0
0
LINE
5
176
100
AcDbEntity
8
0
100
AcDbLine
10
26.964600000000011
20
81.879399999999976
30
0
11
26.464299999999994
21
82.389899999999983
31
0
0
LINE
5
177
100
AcDbEntity
8
0
100
AcDbLine
10
37.757100000000008
20
81.879399999999976
30
0
11
26.964600000000011
21
81.879399999999976
31
0
0
ARC
5
178
100
AcDbEntity
8
0
100
AcDbCircle
10
17.412949999999991
20
81.381599999999978
30
0
40
0.75054999999999872
210
0
220
0
230
1
100
AcDbArc
50
-180
51
0
0
ARC
5
179
100
AcDbEntity
8
0
100
AcDbCircle
10
56.612772619142142
20
81.376574624913559
30
0
40
0.75057738456759671
210
0
220
0
230
1
100
AcDbArc
50
180.2041695457352
51
359.99430346208561
0
ENDSEC
0
SECTION
2
OBJECTS
0
DICTIONARY
5
C
100
AcDbDictionary
3
ACAD_GROUP
350
D
3
ACAD_MLINESTYLE
350
17
0
DICTIONARY
5
D
100
AcDbDictionary
0
DICTIONARY
5
1A
330
C
100
AcDbDictionary
0
DICTIONARY
5
17
100
AcDbDictionary
0
ENDSEC
0
EOF
